<svg xmlns="http://www.w3.org/2000/svg" viewBox="0 0 13.206 8.4"><style>.st0{fill-rule:evenodd;clip-rule:evenodd;fill:#fff}</style><path class="st0" d="M2.924 4.925v1.447c0 .863-.632 1.181-1.419 1.181S0 7.236 0 6.372V2.01C0 1.147.716.829 1.504.829s1.42.318 1.42 1.181v1.205H1.689V2.22c0-.182-.058-.427-.257-.427s-.226.244-.226.427v3.944c0 .182.028.427.226.427.199 0 .257-.245.257-.427V4.925h1.235zm4.033 2.517V.958L8.335.956c.788 0 1.504.318 1.504 1.181v4.108c0 .863-.716 1.181-1.504 1.181l-1.378.016zm1.669-1.369V2.31c0-.181-.028-.427-.227-.427h-.226v4.616H8.4c.198 0 .226-.245.226-.426zm1.69 1.369V.958l1.475-.002c.788 0 1.414.318 1.414 1.181v4.108c0 .863-.717 1.196-1.504 1.196l-1.385.001zm1.676-1.369V2.31c0-.181-.028-.427-.227-.427h-.227v4.616h.227c.199 0 .227-.245.227-.426zM1.907 8.4c1.29-.745 2.619-2.091 2.709-3.064.175-1.903-1.054-2.253-.95-3.438C3.744.994 4.394.259 5.025 0h.613c-.693.322-1.282.973-1.282 1.67 0 1.223 2.179 1.471 1.966 3.941-.091 1.061-.969 2.39-1.299 2.789H1.907z"/></svg>